<?xml version="1.0" standalone="no"?><!DOCTYPE svg PUBLIC "-//W3C//DTD SVG 1.1//EN" "http://www.w3.org/Graphics/SVG/1.1/DTD/svg11.dtd"><svg t="1651313948313" class="icon" viewBox="0 0 1024 1024" version="1.1" xmlns="http://www.w3.org/2000/svg" p-id="5111" xmlns:xlink="http://www.w3.org/1999/xlink" width="200" height="200"><defs><style type="text/css">@font-face { font-family: feedback-iconfont; src: url("//at.alicdn.com/t/font_1031158_u69w8yhxdu.woff2?t=1630033759944") format("woff2"), url("//at.alicdn.com/t/font_1031158_u69w8yhxdu.woff?t=1630033759944") format("woff"), url("//at.alicdn.com/t/font_1031158_u69w8yhxdu.ttf?t=1630033759944") format("truetype"); }
</style></defs><path d="M992 931.2V193.6c0-19.2-22.4-22.4-22.4-22.4H790.4V40c-59.2-60.8-108.8-1.6-108.8-1.6v134.4h-320V35.2c-59.2-59.2-108.8 0-108.8 0v136H52.8C32 171.2 32 193.6 32 193.6v739.2c0 78.4 65.6 67.2 65.6 67.2H928c65.6 0 64-68.8 64-68.8zM803.2 577.6c-60.8 73.6-304 305.6-304 305.6s-49.6 38.4-88 0-174.4-169.6-174.4-169.6-12.8-92.8 84.8-72l110.4 112s19.2 24 44.8 0L729.6 512s102.4-25.6 73.6 65.6z m97.6-228.8H121.6v-64c0-19.2 24-24 24-24h728c25.6 0 27.2 24 27.2 24v64z" p-id="5112"></path></svg>