<?xml version="1.0" standalone="no"?><!DOCTYPE svg PUBLIC "-//W3C//DTD SVG 1.1//EN" "http://www.w3.org/Graphics/SVG/1.1/DTD/svg11.dtd"><svg t="1651313642196" class="icon" viewBox="0 0 1024 1024" version="1.1" xmlns="http://www.w3.org/2000/svg" p-id="3152" xmlns:xlink="http://www.w3.org/1999/xlink" width="200" height="200"><defs><style type="text/css">@font-face { font-family: feedback-iconfont; src: url("//at.alicdn.com/t/font_1031158_u69w8yhxdu.woff2?t=1630033759944") format("woff2"), url("//at.alicdn.com/t/font_1031158_u69w8yhxdu.woff?t=1630033759944") format("woff"), url("//at.alicdn.com/t/font_1031158_u69w8yhxdu.ttf?t=1630033759944") format("truetype"); }
</style></defs><path d="M955.66831746 904.69587302h-29.64723809v-332.88126985c0-17.68431746-8.84215873-41.61015873-29.6472381-50.45231746l-266.30501587-174.24253968V110.98209524l-3.12076191-5.72139683c-11.96292063-29.6472381-38.48939683-44.21079365-70.73726984-38.48939682L139.58907937 191.08165079c-23.92584127 8.84215873-41.61015873 32.768-41.61015874 59.29447619V904.69587302h-29.64723809c-17.68431746 0-29.6472381 14.56355556-29.6472381 29.64723809 0 17.68431746 11.96292063 29.6472381 29.6472381 29.6472381h887.33663492c17.68431746 0 29.6472381-11.96292063 29.6472381-29.6472381 0-18.20444444-11.96292063-29.6472381-29.6472381-29.64723809z m-88.94171429-336.00203175v331.32088889h-236.65777777V414.73625397l236.65777777 153.9575873zM157.27339683 250.37612698l414.02107936-124.3103492v773.94895238H157.27339683V250.37612698z" p-id="3153"></path><path d="M452.70552381 357.52228571H275.34222222c-17.68431746 0-29.6472381 15.08368254-29.64723809 29.6472381 0 17.68431746 11.96292063 29.6472381 29.64723809 29.64723809h177.36330159c17.68431746 0 29.6472381-11.96292063 29.64723809-29.64723809 0-18.20444444-11.96292063-29.6472381-29.64723809-29.6472381z m0 177.36330159H275.34222222c-17.68431746 0-29.6472381 11.96292063-29.64723809 29.6472381 0 17.68431746 11.96292063 29.6472381 29.64723809 29.64723809h177.36330159c17.68431746 0 29.6472381-11.96292063 29.64723809-29.64723809 0-17.68431746-11.96292063-29.6472381-29.64723809-29.6472381z m0 177.36330159H275.34222222c-17.68431746 0-29.6472381 11.96292063-29.64723809 29.64723809 0 17.68431746 11.96292063 29.6472381 29.64723809 29.6472381h177.36330159c17.68431746 0 29.6472381-11.96292063 29.64723809-29.6472381 0-18.20444444-11.96292063-29.6472381-29.64723809-29.64723809z m266.30501587 59.29447619h59.29447619c17.68431746 0 29.6472381-11.96292063 29.6472381-29.6472381 0-17.68431746-11.96292063-29.6472381-29.6472381-29.64723809h-59.29447619c-17.68431746 0-29.6472381 14.56355556-29.64723809 29.64723809 0 17.68431746 11.96292063 29.6472381 29.64723809 29.6472381z" p-id="3154"></path></svg>