<?xml version="1.0" standalone="no"?><!DOCTYPE svg PUBLIC "-//W3C//DTD SVG 1.1//EN" "http://www.w3.org/Graphics/SVG/1.1/DTD/svg11.dtd"><svg t="1651313337355" class="icon" viewBox="0 0 1034 1024" version="1.1" xmlns="http://www.w3.org/2000/svg" p-id="2991" xmlns:xlink="http://www.w3.org/1999/xlink" width="201.953125" height="200"><defs><style type="text/css">@font-face { font-family: feedback-iconfont; src: url("//at.alicdn.com/t/font_1031158_u69w8yhxdu.woff2?t=1630033759944") format("woff2"), url("//at.alicdn.com/t/font_1031158_u69w8yhxdu.woff?t=1630033759944") format("woff"), url("//at.alicdn.com/t/font_1031158_u69w8yhxdu.ttf?t=1630033759944") format("truetype"); }
</style></defs><path d="M 863.536 846.998 c -0.775758 -3.87879 -1.8101 -13.1879 -3.36162 -27.798 c -1.55151 -14.6101 -3.6202 -30.2545 -6.20606 -46.804 c -2.58586 -16.4202 -4.91313 -32.4525 -7.11111 -47.7091 c -2.32727 -15.2566 -4.00808 -25.7293 -5.30101 -31.4182 c -3.10303 -10.8606 -6.98182 -19.7818 -10.9899 -26.8929 c -4.13737 -6.98182 -12.6707 -13.8343 -25.3414 -20.1697 c -4.39596 -1.93939 -11.1192 -4.65454 -20.0404 -8.14546 c -8.92121 -3.49091 -19.1354 -7.3697 -30.5131 -11.3778 c -11.3778 -4.13737 -23.402 -8.40404 -35.9434 -12.9293 s -24.3071 -8.79192 -35.8141 -12.9293 c -11.3778 -4.13737 -21.3333 -7.49899 -29.6081 -10.0848 c -8.27475 -2.71515 -14.0929 -4.39596 -17.196 -5.81818 c -9.69697 -2.58586 -16.0323 -5.4303 -19.2646 -8.66263 c -3.10303 -3.10303 -5.17172 -8.53333 -5.81818 -16.2909 c -0.646465 -3.7495 -0.905051 -9.1798 -0.90505 -16.2909 V 523.636 c 0 -7.62828 0.258586 -15.5152 0.90505 -23.9192 c 6.46465 -6.33535 12.8 -13.3172 19.1354 -20.9455 c 5.17172 -6.98182 10.0848 -14.7394 14.8687 -23.402 c 4.78384 -8.66263 8.40404 -18.2303 10.9899 -29.2202 c 4.39596 -20.299 7.11111 -36.3313 8.01616 -47.7091 c 0.905051 -11.3778 1.42222 -18.101 1.42222 -20.1697 c 0 -3.7495 1.8101 -5.68889 5.30101 -5.30101 c 3.49091 0.258586 7.11111 -1.8101 10.9899 -6.20606 c 2.58586 -2.45657 4.26667 -9.0505 5.30101 -20.0404 c 0.905051 -10.8606 1.42222 -23.0141 1.42222 -36.3313 c 0 -13.4465 -0.258586 -26.2465 -0.905051 -38.2707 c -0.646465 -12.1535 -0.905051 -21.0747 -0.90505 -26.8929 c -1.29293 -18.4889 -6.72323 -34.004 -16.2909 -46.4162 c -9.43838 -12.4121 -21.5919 -20.1697 -36.3313 -23.402 c -12.8 -2.71515 -21.5919 -3.36162 -27.0222 -2.71515 c -5.04242 0.905051 -9.1798 0.258586 -12.4121 -2.32727 c -1.93939 -1.29293 -3.87879 -2.97374 -5.81818 -5.30101 c -1.93939 -2.19798 -4.26667 -4.65454 -7.11111 -7.11111 s -6.85253 -5.30101 -12.0242 -8.14546 c -5.17172 -2.84444 -11.8949 -5.4303 -20.1697 -8.01616 c -7.62828 -1.93939 -19.0061 -2.84444 -34.004 -2.84444 c -14.998 0 -30.7717 1.42222 -47.4505 3.87879 c -16.5495 2.58586 -32.9697 6.59394 -48.7434 12.0242 c -16.0323 5.30101 -28.703 12.2828 -38.2707 20.4283 c -18.4889 17.196 -30.5131 36.0727 -35.9434 56.501 c -5.30101 20.299 -9.0505 41.7616 -10.9899 64 c -1.29293 22.2384 -2.06869 39.4343 -2.45657 51.5879 c -0.258586 12.1535 2.06869 23.5313 7.2404 34.3919 c 1.93939 5.17172 4.91313 8.53333 9.0505 10.0848 c 4.13737 1.55151 6.72323 3.6202 7.2404 6.20606 c 0.517172 2.58586 2.19798 10.9899 4.78384 25.3414 c 2.58586 14.2222 8.27475 30.1253 17.196 47.3212 c 4.39596 9.0505 9.69697 17.4545 15.2566 25.3414 c 5.81818 8.01616 11.3778 14.8687 17.196 20.5576 c 6.46465 6.98182 13.1879 13.3172 20.1697 19.1354 v 55.4667 c 0 5.04242 -3.6202 9.0505 -10.9899 12.0242 c -7.3697 2.84444 -15.7737 5.30101 -25.3414 7.11111 c -4.39596 1.29293 -14.0929 3.49091 -28.703 6.72323 c -14.6101 3.23232 -30.2545 6.98182 -46.804 11.3778 c -16.4202 4.65454 -32.5818 9.1798 -47.7091 14.3515 c -15.2566 5.04242 -25.8586 9.82626 -31.5475 14.2222 c -11.3778 8.92121 -19.5232 17.5838 -24.3071 25.7293 c -4.78384 8.27475 -8.40404 16.1616 -10.9899 23.9192 c -1.29293 3.7495 -3.49091 13.4465 -6.72323 29.2202 c -3.10303 15.5152 -6.72323 32.3232 -10.4727 50.1657 c -3.7495 17.8424 -7.11111 34.5212 -10.0848 50.1657 c -2.84444 15.5152 -4.65454 25.6 -5.30101 30.1253 c -0.775758 5.17172 0 9.69697 1.93939 13.8343 c 1.93939 4.13737 4.65454 7.75758 8.01616 10.4727 c 3.49091 2.97374 7.11111 5.30101 10.9899 7.2404 s 6.98182 3.10303 9.69697 3.7495 c 12.0242 3.23232 28.9616 6.33535 50.2949 9.0505 c 21.3333 2.84444 45.899 5.30101 73.697 7.62828 c 27.798 2.32727 58.1818 4.00808 91.4101 5.30101 c 33.2283 1.42222 68.0081 2.06869 104.21 2.06869 c 36.3313 0 70.8525 -0.905051 103.693 -2.45657 c 32.9697 -1.55151 62.9657 -3.6202 90.5051 -6.20606 c 27.5394 -2.45657 51.5879 -5.30101 72.2747 -8.01616 c 20.8162 -2.97374 36.3313 -5.68889 47.3212 -8.14546 c 12.9293 -3.10303 20.9455 -7.62828 24.4364 -13.3172 c 3.49091 -5.30101 4.91313 -12.4121 4.26667 -20.5576 Z m -381.543 -68.1374 l -43.0545 -112.743 l 38.2707 -30.5131 l 27.5394 43.0545 l -22.7556 100.202 Z m 90.1172 0.129293 l -25.8586 -99.4263 l 27.9273 -42.0202 l 40.2101 28.703 l -42.2788 112.743 Z m 0 0" p-id="2992"></path><path d="M 0.117527 800.97 c 0.646465 -3.36162 1.55151 -11.3778 2.97374 -24.0485 c 1.42222 -12.6707 3.23232 -26.1172 5.30101 -40.3394 c 2.32727 -14.2222 4.26667 -28.0566 6.20606 -41.1152 c 2.06869 -13.1879 3.49091 -22.2384 4.52525 -27.1515 c 2.71515 -9.43838 5.94747 -17.0667 9.43838 -23.1434 c 3.6202 -6.07677 10.9899 -11.8949 21.8505 -17.3253 c 3.7495 -1.68081 9.56768 -4.00808 17.3253 -6.98182 c 7.62828 -2.97374 16.4202 -6.33535 26.3758 -9.82626 c 9.82626 -3.49091 20.1697 -7.2404 30.901 -11.1192 c 10.7313 -3.87879 20.9455 -7.62828 30.901 -11.1192 c 9.69697 -3.6202 18.3596 -6.46465 25.4707 -8.66263 c 7.11111 -2.32727 12.1535 -3.7495 14.8687 -5.04243 c 8.27475 -2.32727 13.8343 -4.65454 16.5495 -7.49899 c 2.71515 -2.71515 4.39596 -7.3697 5.04242 -14.0929 c 0.517172 -3.23232 0.775758 -7.88687 0.775758 -14.0929 v -17.3253 c 0 -6.59394 -0.258586 -13.4465 -0.775758 -20.5576 c -5.5596 -5.4303 -10.9899 -11.5071 -16.5495 -18.101 c -4.39596 -6.07677 -8.66263 -12.8 -12.8 -20.1697 c -4.13737 -7.49899 -7.2404 -15.7737 -9.43838 -25.2121 c -3.7495 -17.5838 -6.20606 -31.2889 -6.98182 -41.1152 c -0.775758 -9.82626 -1.16364 -15.6444 -1.16364 -17.3253 c 0 -3.23232 -1.55151 -4.91313 -4.52525 -4.52525 c -2.97374 0.258586 -6.07677 -1.55151 -9.43838 -5.30101 c -2.32727 -2.06869 -3.7495 -7.88687 -4.52525 -17.3253 c -0.775758 -9.30909 -1.16364 -19.7818 -1.16364 -31.2889 c 0 -11.6364 0.258586 -22.6263 0.775757 -32.9697 c 0.517172 -10.4727 0.775758 -18.2303 0.775758 -23.1434 c 1.16364 -15.903 5.81818 -29.3495 14.0929 -39.9515 c 8.14546 -10.7313 18.6182 -17.4545 31.2889 -20.1697 c 10.9899 -2.32727 18.6182 -2.97374 23.402 -2.32727 c 4.39596 0.775758 7.88687 0.129293 10.7313 -2.06869 c 1.68081 -1.03434 3.36162 -2.71515 5.04243 -4.52525 c 1.68081 -1.93939 3.7495 -4.00808 6.07677 -6.20606 c 2.45657 -2.06869 5.81818 -4.52525 10.3434 -6.98182 c 4.39596 -2.45657 10.2141 -4.65454 17.3253 -6.98182 c 6.59394 -1.68081 16.4202 -2.45657 29.3495 -2.45657 c 3.36162 0 6.72323 0 10.0848 0.258586 c -1.55151 1.68081 -2.97374 3.36162 -4.39596 5.30101 c -9.56768 12.4121 -14.998 27.9273 -16.2909 46.4162 c 0 5.81818 -0.258586 14.6101 -0.905051 26.8929 c -0.646465 12.0242 -0.905051 24.8242 -0.90505 38.2707 c 0 13.3172 0.387879 25.4707 1.42222 36.3313 c 0.905051 10.8606 2.71515 17.5838 5.30101 20.0404 c 3.87879 4.39596 7.62828 6.46465 10.9899 6.20606 c 3.49091 -0.387879 5.30101 1.42222 5.30101 5.30101 c 0 2.06869 0.387879 8.66263 1.42222 20.1697 c 0.905051 11.3778 3.6202 27.4101 8.01616 47.7091 c 2.58586 10.8606 6.20606 20.4283 10.9899 29.2202 c 4.78384 8.53333 9.69697 16.4202 14.8687 23.402 c 6.46465 7.62828 12.8 14.6101 19.1354 20.9455 c 0.646465 8.40404 0.905051 16.2909 0.905051 23.9192 v 20.0404 c 0 6.98182 -0.258586 12.5414 -0.905051 16.2909 c -0.646465 7.75758 -2.58586 13.1879 -5.81818 16.2909 c -3.10303 3.23232 -9.56768 6.07677 -19.2646 8.66263 c -3.10303 1.42222 -8.92121 3.10303 -17.196 5.81818 s -18.2303 5.81818 -29.6081 10.0848 c -11.5071 4.13737 -23.402 8.40404 -35.8141 12.9293 c -12.5414 4.52525 -24.4364 8.79192 -35.9434 12.9293 c -11.3778 4.13737 -21.5919 8.01616 -30.5131 11.3778 c -8.92121 3.49091 -15.6444 6.20606 -20.0404 8.14546 c -12.6707 6.33535 -21.204 13.1879 -25.3414 20.1697 c -4.13737 7.11111 -7.88687 15.903 -10.9899 26.8929 c -1.29293 5.68889 -2.97374 16.2909 -5.30101 31.4182 c -2.19798 15.2566 -4.52525 31.2889 -7.11111 47.7091 s -4.65454 32.0646 -6.20606 46.804 c -1.16364 11.1192 -2.06869 19.1354 -2.71515 24.0485 c -17.7131 -1.8101 -33.4869 -3.6202 -47.7091 -5.5596 c -17.8424 -2.58586 -31.4182 -4.91313 -40.7273 -6.98182 c -11.1192 -2.71515 -18.101 -6.59394 -21.0747 -11.5071 c -3.36162 -5.17172 -4.52525 -11.3778 -4.00808 -18.3596 Z m 1033.57 -5.30101 c -0.646465 -3.36162 -1.55151 -11.3778 -2.97374 -24.0485 c -1.42222 -12.6707 -3.23232 -26.1172 -5.30101 -40.3394 c -2.32727 -14.2222 -4.26667 -28.0566 -6.20606 -41.1152 c -2.06869 -13.1879 -3.49091 -22.2384 -4.52525 -27.1515 c -2.71515 -9.43838 -5.94747 -17.0667 -9.43838 -23.1434 c -3.6202 -6.07677 -10.9899 -11.8949 -21.8505 -17.3253 c -3.87879 -1.68081 -9.56768 -4.00808 -17.3253 -6.98182 c -7.62828 -2.97374 -16.4202 -6.33535 -26.3758 -9.82626 c -9.82626 -3.49091 -20.1697 -7.2404 -30.901 -11.1192 c -10.7313 -3.87879 -20.9455 -7.62828 -30.901 -11.1192 c -9.69697 -3.6202 -18.3596 -6.46465 -25.4707 -8.66263 c -7.11111 -2.32727 -12.1535 -3.7495 -14.8687 -5.04243 c -8.27475 -2.32727 -13.8343 -4.65454 -16.5495 -7.49899 c -2.71515 -2.71515 -4.39596 -7.3697 -5.04242 -14.0929 c -0.517172 -3.23232 -0.775758 -7.88687 -0.775757 -14.0929 v -17.3253 c 0 -6.59394 0.258586 -13.4465 0.775757 -20.5576 c 5.5596 -5.4303 10.9899 -11.5071 16.5495 -18.101 c 4.39596 -6.07677 8.66263 -12.8 12.8 -20.1697 c 4.13737 -7.49899 7.2404 -15.7737 9.43838 -25.2121 c 3.7495 -17.5838 6.07677 -31.2889 6.98182 -41.1152 c 0.775758 -9.82626 1.16364 -15.6444 1.16364 -17.3253 c 0 -3.23232 1.55151 -4.91313 4.52525 -4.52525 c 2.97374 0.258586 6.20606 -1.55151 9.43838 -5.30101 c 2.32727 -2.06869 3.7495 -7.88687 4.52525 -17.3253 c 0.775758 -9.30909 1.16364 -19.7818 1.16364 -31.2889 c 0 -11.6364 -0.258586 -22.6263 -0.775758 -32.9697 c -0.517172 -10.4727 -0.775758 -18.2303 -0.775757 -23.1434 c -1.16364 -15.903 -5.81818 -29.2202 -14.0929 -39.9515 c -8.14546 -10.7313 -18.6182 -17.4545 -31.2889 -20.1697 c -10.9899 -2.32727 -18.6182 -2.97374 -23.402 -2.32727 c -4.39596 0.775758 -7.88687 0.129293 -10.7313 -2.06869 c -1.68081 -1.03434 -3.36162 -2.58586 -4.91313 -4.52525 c -1.68081 -1.93939 -3.7495 -4.00808 -6.20606 -6.20606 c -2.45657 -2.06869 -5.81818 -4.52525 -10.3434 -6.98182 c -4.39596 -2.45657 -10.2141 -4.65454 -17.3253 -6.98182 c -6.59394 -1.68081 -16.4202 -2.45657 -29.2202 -2.45657 c -3.36162 0 -6.72323 0 -10.0848 0.258586 c 1.55151 1.68081 2.97374 3.36162 4.39596 5.30101 c 9.56768 12.4121 14.998 27.9273 16.2909 46.4162 c 0 5.81818 0.258586 14.6101 0.905051 26.8929 c 0.646465 12.0242 0.905051 24.8242 0.90505 38.2707 c 0 13.3172 -0.387879 25.4707 -1.42222 36.3313 c -0.905051 10.8606 -2.58586 17.5838 -5.30101 20.0404 c -3.87879 4.39596 -7.62828 6.46465 -10.9899 6.20606 c -3.49091 -0.387879 -5.30101 1.42222 -5.30101 5.30101 c 0 2.06869 -0.387879 8.66263 -1.42222 20.1697 c -0.905051 11.3778 -3.6202 27.4101 -8.01616 47.7091 c -2.71515 10.8606 -6.20606 20.4283 -10.9899 29.2202 c -4.78384 8.53333 -9.69697 16.4202 -14.8687 23.402 c -6.46465 7.62828 -12.8 14.6101 -19.1354 20.9455 c -0.646465 8.40404 -0.905051 16.2909 -0.905051 23.9192 v 20.0404 c 0 6.98182 0.258586 12.5414 0.905051 16.2909 c 0.646465 7.75758 2.58586 13.1879 5.81818 16.2909 c 3.10303 3.23232 9.56768 6.07677 19.2646 8.66263 c 3.10303 1.42222 8.92121 3.10303 17.196 5.81818 c 8.27475 2.58586 18.2303 5.81818 29.6081 10.0848 c 11.5071 4.13737 23.402 8.40404 35.8141 12.9293 c 12.5414 4.52525 24.4364 8.79192 35.9434 12.9293 c 11.3778 4.13737 21.5919 8.01616 30.5131 11.3778 c 8.92121 3.49091 15.6444 6.20606 20.0404 8.14545 c 12.6707 6.33535 21.204 13.1879 25.3414 20.1697 c 4.13737 6.98182 7.88687 15.903 10.9899 26.8929 c 1.29293 5.68889 2.97374 16.2909 5.30101 31.4182 c 2.19798 15.2566 4.52525 31.2889 7.11111 47.7091 s 4.65454 32.0646 6.20606 46.804 c 1.16364 11.1192 2.06869 19.1354 2.71515 24.0485 c 17.7131 -1.8101 33.4869 -3.6202 47.7091 -5.5596 c 17.8424 -2.58586 31.4182 -4.91313 40.7273 -6.98182 c 11.1192 -2.71515 18.101 -6.59394 21.0747 -11.5071 c 3.23232 -5.17172 4.39596 -11.3778 3.87879 -18.3596 Z m 0 0" p-id="2993"></path></svg>