<?xml version="1.0" standalone="no"?><!DOCTYPE svg PUBLIC "-//W3C//DTD SVG 1.1//EN" "http://www.w3.org/Graphics/SVG/1.1/DTD/svg11.dtd"><svg t="1650287161629" class="icon" viewBox="0 0 1024 1024" version="1.1" xmlns="http://www.w3.org/2000/svg" p-id="12930" xmlns:xlink="http://www.w3.org/1999/xlink" width="200" height="200"><defs><style type="text/css">@font-face { font-family: feedback-iconfont; src: url("//at.alicdn.com/t/font_1031158_u69w8yhxdu.woff2?t=1630033759944") format("woff2"), url("//at.alicdn.com/t/font_1031158_u69w8yhxdu.woff?t=1630033759944") format("woff"), url("//at.alicdn.com/t/font_1031158_u69w8yhxdu.ttf?t=1630033759944") format("truetype"); }
</style></defs><path d="M708.2 792.2l-97.5-97.7c-11.6-11.6-11.6-30.3 0-41.9l41.9-41.9c11.6-11.6 30.3-11.6 41.9 0l97.6 97.6 85.3-85.3c11.6-11.6 30.3-11.6 41.9-0.1 5.6 5.6 8.7 13.1 8.7 21v254.4c0 16.4-13.3 29.6-29.6 29.6H643.9c-16.4 0-29.6-13.3-29.6-29.6 0-7.8 3.1-15.4 8.6-20.9l85.3-85.3v0.1zM234 708.1l97.5-97.6c11.6-11.6 30.3-11.6 41.9 0l41.9 41.9c11.6 11.6 11.6 30.3 0 41.9l-97.6 97.6 85.3 85.3c11.6 11.6 11.5 30.4-0.1 41.9-5.6 5.5-13.1 8.6-20.9 8.6H127.7c-16.4 0-29.6-13.3-29.6-29.6V643.7c0-16.4 13.3-29.6 29.6-29.6 7.9 0 15.4 3.1 21 8.7l85.3 85.3zM792 318l-97.6 97.6c-11.6 11.6-30.3 11.6-41.9 0l-41.8-41.8c-11.6-11.6-11.6-30.3 0-41.9l97.6-97.6L623 149c-11.6-11.6-11.5-30.4 0.1-41.9 5.6-5.5 13.1-8.6 20.9-8.6h254.4c16.4 0 29.6 13.3 29.6 29.6v254.4c0 16.4-13.3 29.6-29.6 29.6-7.9 0-15.4-3.1-21-8.7L792 318z m-474.3-83.9l97.6 97.6c11.6 11.6 11.6 30.3 0 41.9l-42 42c-11.6 11.6-30.3 11.6-41.9 0L233.8 318l-85.3 85.3c-11.6 11.6-30.4 11.5-41.9-0.1-5.6-5.6-8.7-13.1-8.6-21V127.8c0-16.4 13.3-29.6 29.6-29.6H382c16.4 0 29.6 13.3 29.6 29.6 0 7.9-3.1 15.4-8.7 21l-85.2 85.3z" p-id="12931"></path></svg>