<svg xmlns="http://www.w3.org/2000/svg" viewBox="0 0 1087.05 1072.49"><defs><style>.cls-1{fill:#e7eaf5;}.cls-2{fill:#fff;}.cls-3{fill:#b4bfd3;}.cls-4{fill:#5b8b77;}.cls-5{fill:#94c384;}.cls-6{fill:#78b066;}.cls-7{fill:#364d4d;}.cls-8{fill:#7381a1;}.cls-9{fill:#d97e58;}.cls-10,.cls-24{fill:#e7ac65;}.cls-11{fill:#273045;}.cls-12{fill:#3c455d;}.cls-13{fill:#4e586f;}.cls-14{fill:#15171b;}.cls-15{fill:#8b9bc3;}.cls-16{fill:#e19b84;}.cls-17{fill:#1f253f;}.cls-18{fill:#a94151;}.cls-19{opacity:0.57;}.cls-20{fill:#5f73b3;}.cls-21{opacity:0.72;}.cls-22{fill:#323879;}.cls-23{fill:#52637e;}.cls-24{opacity:0.54;}.cls-25{fill:#c05247;opacity:0.36;}.cls-26{fill:#f8ea9e;}</style></defs><g id="OBJECTS"><rect class="cls-1" x="66.99" y="918.77" width="953.07" height="14.3" rx="7"/><rect class="cls-2" x="479.6" y="156.75" width="379.88" height="532.57" rx="4.62"/><path class="cls-1" d="M615.05,317.33v372H484.22a4.63,4.63,0,0,1-4.62-4.62V227.22h63.26Z"/><path class="cls-3" d="M509.07,355.46v23.28a2.42,2.42,0,0,0,2.43,2.42h22.26a2.42,2.42,0,0,0,2.43-2.42V355.46a13.56,13.56,0,0,0-27.12,0Zm12.35-11.06v12.48H511.5v-1.42A11.14,11.14,0,0,1,521.42,344.4Zm12.34,11.06v1.42h-9.91V344.4A11.14,11.14,0,0,1,533.76,355.46Zm0,23.28h-9.91V359.31h9.91Zm-22.26,0V359.31h9.92v19.43Z"/><path class="cls-3" d="M558.46,355.46v23.28a2.42,2.42,0,0,0,2.43,2.42h22.26a2.42,2.42,0,0,0,2.43-2.42V355.46a13.56,13.56,0,0,0-27.12,0ZM570.8,344.4v12.48h-9.91v-1.42A11.14,11.14,0,0,1,570.8,344.4Zm12.35,11.06v1.42h-9.92V344.4A11.14,11.14,0,0,1,583.15,355.46Zm0,23.28h-9.92V359.31h9.92Zm-22.26,0V359.31h9.91v19.43Z"/><path class="cls-3" d="M509.07,422.34v23.28a2.43,2.43,0,0,0,2.43,2.43h22.26a2.43,2.43,0,0,0,2.43-2.43V422.34a13.56,13.56,0,0,0-27.12,0Zm12.35-11.06v12.48H511.5v-1.42A11.14,11.14,0,0,1,521.42,411.28Zm12.34,11.06v1.42h-9.91V411.28A11.14,11.14,0,0,1,533.76,422.34Zm0,23.28h-9.91V426.19h9.91Zm-22.26,0V426.19h9.92v19.43Z"/><path class="cls-3" d="M558.46,422.34v23.28a2.43,2.43,0,0,0,2.43,2.43h22.26a2.43,2.43,0,0,0,2.43-2.43V422.34a13.56,13.56,0,0,0-27.12,0Zm12.34-11.06v12.48h-9.91v-1.42A11.14,11.14,0,0,1,570.8,411.28Zm12.35,11.06v1.42h-9.92V411.28A11.14,11.14,0,0,1,583.15,422.34Zm0,23.28h-9.92V426.19h9.92Zm-22.26,0V426.19h9.91v19.43Z"/><path class="cls-3" d="M509.07,489.22V512.5a2.43,2.43,0,0,0,2.43,2.43h22.26a2.43,2.43,0,0,0,2.43-2.43V489.22a13.56,13.56,0,0,0-27.12,0Zm12.35-11.06v12.48H511.5v-1.42A11.15,11.15,0,0,1,521.42,478.16Zm12.34,11.06v1.42h-9.91V478.16A11.15,11.15,0,0,1,533.76,489.22Zm0,23.28h-9.91V493.07h9.91Zm-22.26,0V493.07h9.92V512.5Z"/><path class="cls-3" d="M558.46,489.22V512.5a2.43,2.43,0,0,0,2.43,2.43h22.26a2.43,2.43,0,0,0,2.43-2.43V489.22a13.56,13.56,0,0,0-27.12,0Zm12.34-11.06v12.48h-9.91v-1.42A11.15,11.15,0,0,1,570.8,478.16Zm12.35,11.06v1.42h-9.92V478.16A11.15,11.15,0,0,1,583.15,489.22Zm0,23.28h-9.92V493.07h9.92Zm-22.26,0V493.07h9.91V512.5Z"/><path class="cls-3" d="M509.07,556.1v23.28a2.43,2.43,0,0,0,2.43,2.43h22.26a2.43,2.43,0,0,0,2.43-2.43V556.1a13.56,13.56,0,1,0-27.12,0ZM521.42,545v12.48H511.5V556.1A11.15,11.15,0,0,1,521.42,545Zm12.34,11.06v1.42h-9.91V545A11.15,11.15,0,0,1,533.76,556.1Zm0,23.28h-9.91V560h9.91Zm-22.26,0V560h9.92v19.43Z"/><path class="cls-3" d="M558.46,556.1v23.28a2.43,2.43,0,0,0,2.43,2.43h22.26a2.43,2.43,0,0,0,2.43-2.43V556.1a13.56,13.56,0,1,0-27.12,0ZM570.8,545v12.48h-9.91V556.1A11.15,11.15,0,0,1,570.8,545Zm12.35,11.06v1.42h-9.92V545A11.15,11.15,0,0,1,583.15,556.1Zm0,23.28h-9.92V560h9.92Zm-22.26,0V560h9.91v19.43Z"/><path class="cls-3" d="M509.07,623v23.28a2.43,2.43,0,0,0,2.43,2.43h22.26a2.43,2.43,0,0,0,2.43-2.43V623a13.56,13.56,0,0,0-27.12,0Zm12.35-11.06V624.4H511.5V623A11.15,11.15,0,0,1,521.42,611.92ZM533.76,623v1.42h-9.91V611.92A11.15,11.15,0,0,1,533.76,623Zm0,23.28h-9.91V626.83h9.91Zm-22.26,0V626.83h9.92v19.43Z"/><path class="cls-3" d="M558.46,623v23.28a2.43,2.43,0,0,0,2.43,2.43h22.26a2.43,2.43,0,0,0,2.43-2.43V623a13.56,13.56,0,0,0-27.12,0Zm12.34-11.06V624.4h-9.91V623A11.15,11.15,0,0,1,570.8,611.92ZM583.15,623v1.42h-9.92V611.92A11.15,11.15,0,0,1,583.15,623Zm0,23.28h-9.92V626.83h9.92Zm-22.26,0V626.83h9.91v19.43Z"/><path class="cls-4" d="M527.72,611.55s-31,.29-41-28.17,13.74-51.1,27.47-38.63S541.76,605.41,527.72,611.55Z"/><path class="cls-3" d="M869.31,139.42H469.78a4.63,4.63,0,0,0-4.62,4.62V702a4.63,4.63,0,0,0,4.62,4.62H869.31a4.62,4.62,0,0,0,4.62-4.62V144A4.62,4.62,0,0,0,869.31,139.42Zm-389.71,22a4.62,4.62,0,0,1,4.62-4.62H661.17V273.43H479.6Zm0,124.64H661.17V499.73H479.6Zm0,398.68V512.31H661.17v177H484.22A4.63,4.63,0,0,1,479.6,684.69Zm379.89,0a4.62,4.62,0,0,1-4.63,4.62H673.75v-177H859.49Zm0-185H673.75V286H859.49Zm0-226.3H673.75V156.75H854.86a4.62,4.62,0,0,1,4.63,4.62Z"/><polygon class="cls-1" points="859.49 317.32 859.49 387.22 696.02 387.22 751.67 317.32 859.49 317.32"/><path class="cls-3" d="M859.49,387.22v13.86H700.64a4.62,4.62,0,0,1-4.62-4.62v-9.24Z"/><rect class="cls-1" x="713.35" y="401.08" width="146.14" height="84.33"/><path class="cls-5" d="M539.59,496s-16.66-22.36-10.5-36.22,11-15.41,13.77-8.09-2,40.26-2,40.26,4.39-46.11,11.71-61.09,11.16-13.44,10-4.59-7.83,31.53-7.83,31.53,11.29-35.38,20.92-44.62,11.55-5.78,10.4,4.24-29,40.43-29,40.43,17.86-13.86,22.87-3.47-34.12,27-34.12,27,18.33-1.62,17.17,7.24S539.59,496,539.59,496Z"/><path class="cls-6" d="M538.5,580.05s1-36.17,24.86-44.7,31,13.41,23,27.27S545.42,589.77,538.5,580.05Z"/><path class="cls-6" d="M516.91,553s-12.08,7.88-19.4-15.52S511,532.2,511,532.2s-18.9-15.79-20.44-31.58S502.9,471,506,479.06a132.49,132.49,0,0,1,5,17.07S502.9,468,507.52,452s9.39,8.21,9.39,8.21-9.39-29.65,1.78-40.24,20.41,5.58,15,19.45-19.18,30.13-19.18,30.13,8.12-14.73,10.57,2.6-15,43.08-15,43.08,11.32-8.43,12.86,5.82S516.91,553,516.91,553Z"/><path class="cls-7" d="M582.29,552.45c-.15,0-15.83-1.44-30.86,11.66-11.37,9.91-16.71,22.77-18.66,28.5-1.93-23.32-2.49-55.12,4.28-83,12.45-51.25,40.73-88.36,41-88.73a.58.58,0,1,0-.91-.71c-.29.37-28.72,37.66-41.23,89.17-5.25,21.63-6.11,45.59-5.34,66.17-3-3.2-12.67-15.35-19-46-7.51-36.68,13.8-92.39,14-93a.58.58,0,0,0-1.08-.41c-.22.56-21.65,56.58-14.07,93.59,7.21,35.22,18.61,46.14,20.16,47.49.28,6.56.71,12.74,1.22,18.37v0a.56.56,0,0,0,0,.36c.75,8.2,1.64,15.2,2.39,20.4-15-11.74-30.11-48.16-30.27-48.55a.59.59,0,0,0-.76-.31.58.58,0,0,0-.31.75c.67,1.63,16.05,38.64,31.58,49.74.78,5.15,1.35,8.16,1.38,8.3a.57.57,0,0,0,.57.47h.11a.58.58,0,0,0,.45-.68c0-.13-.52-2.73-1.21-7.22l.35.22a.54.54,0,0,0,.3.08.58.58,0,0,0,.29-1.07c-.39-.23-.78-.49-1.17-.76-.79-5.31-1.76-12.78-2.57-21.64.5-1.91,5.23-18.55,19.15-30.68,14.64-12.76,29.84-11.4,30-11.38a.58.58,0,0,0,.11-1.15Z"/><path class="cls-8" d="M500.66,685.14l-9.85-53.52a4.63,4.63,0,0,1,4.55-5.46h82.25a4.62,4.62,0,0,1,4.57,5.32L574,685a4.62,4.62,0,0,1-4.57,3.92H505.21A4.63,4.63,0,0,1,500.66,685.14Z"/><path class="cls-3" d="M748.17,435.32V458.6a2.43,2.43,0,0,0,2.42,2.43h22.26a2.43,2.43,0,0,0,2.43-2.43V435.32a13.56,13.56,0,1,0-27.11,0Zm12.34-11.06v12.48h-9.92v-1.42A11.14,11.14,0,0,1,760.51,424.26Zm12.34,11.06v1.42h-9.91V424.26A11.14,11.14,0,0,1,772.85,435.32Zm0,23.28h-9.91V439.17h9.91Zm-22.26,0V439.17h9.92V458.6Z"/><path class="cls-3" d="M797.55,435.32V458.6A2.43,2.43,0,0,0,800,461h22.26a2.43,2.43,0,0,0,2.43-2.43V435.32a13.56,13.56,0,1,0-27.12,0Zm12.35-11.06v12.48H800v-1.42A11.14,11.14,0,0,1,809.9,424.26Zm12.34,11.06v1.42h-9.92V424.26A11.14,11.14,0,0,1,822.24,435.32Zm0,23.28h-9.92V439.17h9.92Zm-22.26,0V439.17h9.92V458.6Z"/><path class="cls-9" d="M622.77,713.12c-6.61-.1-11.68-2.54-15.09-7.26-6.29-8.72-4.79-23.18-3.14-28.43,2.38-7.56,19.13-4.56,22.46-3.88l-.84,4.13c-7.68-1.57-16.8-1.53-17.6,1-1.24,3.94-2.94,17.12,2.53,24.71,2.62,3.63,6.47,5.44,11.75,5.52Z"/><path class="cls-10" d="M627.28,664.82H672a5,5,0,0,1,5,5v40.76a13,13,0,0,1-13,13H635.28a13,13,0,0,1-13-13V669.82a5,5,0,0,1,5-5Z"/><rect class="cls-3" x="945.81" y="572.66" width="46.48" height="12.14" rx="3"/><rect class="cls-3" x="920.19" y="311.25" width="46.48" height="12.14" rx="3"/><rect class="cls-1" x="927.79" y="221.15" width="49.9" height="12.14" rx="3"/><rect class="cls-1" x="902.84" y="323.2" width="49.9" height="12.14" rx="3"/><path class="cls-11" d="M668.58,675.16H655.06a4.62,4.62,0,0,1-4.62-4.62v-235a4.62,4.62,0,0,1,4.62-4.62h13.52a4.62,4.62,0,0,0-4.62,4.62v235A4.62,4.62,0,0,0,668.58,675.16Z"/><rect class="cls-12" x="663.96" y="430.89" width="302.71" height="244.28" rx="4.62"/><polygon class="cls-11" points="708.44 675.16 701.79 723.58 693.71 723.58 693.71 675.16 708.44 675.16"/><polygon class="cls-11" points="920.42 675.16 927.07 723.58 935.15 723.58 935.15 675.16 920.42 675.16"/><path class="cls-13" d="M966.67,568V670.54a4.62,4.62,0,0,1-4.62,4.62H668.58a4.62,4.62,0,0,1-4.62-4.62V568Z"/><rect class="cls-14" x="764.76" y="568.01" width="109.17" height="107.15" rx="8"/><rect class="cls-11" x="774" y="568.01" width="109.17" height="107.15" rx="8"/><path class="cls-13" d="M813,618.55a5.2,5.2,0,1,1-5.2-5.19A5.2,5.2,0,0,1,813,618.55Z"/><path class="cls-13" d="M833.78,618.55a5.2,5.2,0,1,1-5.2-5.19A5.2,5.2,0,0,1,833.78,618.55Z"/><path class="cls-13" d="M854.58,618.55a5.2,5.2,0,1,1-5.2-5.19A5.2,5.2,0,0,1,854.58,618.55Z"/><path class="cls-15" d="M520.25,622.63v136a14.44,14.44,0,0,1-14.43,14.44H286a14.45,14.45,0,0,1-14.44-14.44v-322A14.44,14.44,0,0,1,286,422.22h42.07a19.69,19.69,0,0,1,18.61,13.24l17.89,159.9a14.24,14.24,0,0,0,1.61,5.2A14.45,14.45,0,0,0,379,608.19H505.82A14.44,14.44,0,0,1,520.25,622.63Z"/><path class="cls-1" d="M367.1,608.19H155.81v-186h172.3a19.69,19.69,0,0,1,18.61,13.24,19.43,19.43,0,0,1,1,4.34l18.52,160.76Z"/><path class="cls-16" d="M362.15,861.15s4.63,21.67,1.74,32.06-4.33,23.69,2.31,24.26,13-4,19.35-2.31,24.84,5.59,33.79,2.36,12.71-7,9-9.29-6.93,1.16-10.68.29-18.49-8.66-23.4-9.53-6.93-9.53-6.93-12.13,2.6-27.15,2.6-27.15Z"/><rect class="cls-3" x="318.29" y="688.93" width="167.99" height="84.18"/><path class="cls-1" d="M520.26,622.63v136a14.45,14.45,0,0,1-14.44,14.44H484.69a15.33,15.33,0,0,1-15.33-15.33V622.63a14.45,14.45,0,0,1,14.44-14.44h22A14.45,14.45,0,0,1,520.26,622.63Z"/><rect class="cls-15" x="343.73" y="723.58" width="125.63" height="5.01"/><path class="cls-12" d="M355.59,607.31s27.17-28.52,74.53-21.58,42.36,33.88,36.58,55.06S419,688.93,419,688.93H400.07S402,865.68,398.16,868s-38.51,4.24-40.05,0-14.38-125.15-14.38-125.15L331.61,608.19Z"/><path class="cls-12" d="M487.48,536.36l37-48.86a2.87,2.87,0,0,0-.73-4.16l-2.18-1.42a2.88,2.88,0,0,0-3.93.76l-35.26,50.05a2.89,2.89,0,0,0,.95,4.18l.4.22A2.89,2.89,0,0,0,487.48,536.36Z"/><path class="cls-16" d="M457.18,515.57s8.95-2.05,12.8-6.09,12.7-6.93,15-6.35,27.53,1.59,26,6.18-9.24,17.5-12.13,18.46-10.59-2.12-13.48-2.5-10.2.77-11,.77-10.59-.39-14.25,3.08S457.18,515.57,457.18,515.57Z"/><path class="cls-17" d="M267.62,441.13s-6.74,1.73-10.59-3.66-4.69-6.54-4.69-6.54A7.22,7.22,0,0,1,247,426.3a12.49,12.49,0,0,1,0-8.08s-12.13-1-13.67-11.17,3.85-16,3.85-16-1.93-7.32,1.54-12.52,5.3-8.47,11.6-8.28c0,0-1-8.28,5.34-13.67s9.6-5,9.6-5-.94-4.62,2.34-7.32,11.16,0,11.16,0a8.42,8.42,0,0,1,4.63-6.55,8,8,0,0,1,7.31,0s.39-1.92,4.82-2.31,8.47,2.89,8.28,3.66,4.23-13.09,19.06-6.74,14.05,25.42,14.05,25.42,7.9,5.78,8.86,12.13-6.55,13.86-6.55,13.86,2.31,10,.39,14.25-11.75,5.87-11.75,5.87S272.43,439,267.62,441.13Z"/><path class="cls-3" d="M343.73,622.63v136a14.44,14.44,0,0,1-14.44,14.44H109.52a14.45,14.45,0,0,1-14.44-14.44v-322a14.44,14.44,0,0,1,14.44-14.44h46.29a14.44,14.44,0,0,1,14.35,12.84l17.92,160.3a14.45,14.45,0,0,0,14.36,12.83H329.29A14.44,14.44,0,0,1,343.73,622.63Z"/><path class="cls-1" d="M343.73,622.63v136a14.44,14.44,0,0,1-14.44,14.44H308.17a15.33,15.33,0,0,1-15.33-15.33V622.63a14.45,14.45,0,0,1,14.44-14.44h22A14.44,14.44,0,0,1,343.73,622.63Z"/><path class="cls-16" d="M283.41,399.15s-7.32-7.12-12.9-1.73-7.13,11.17-2.51,16.18,4.43,5.69,4.62,8.62,1.23,11.9-1,14.44-4.75,3.51-4,4.47,9.7,20,4,25,13,26.57,30.67,24.07,19.45,1.73,20.41-5.2-6.16-19.45-6.16-19.45-2.69.39-3.85-5.58a25.56,25.56,0,0,1,.58-11.36s9.43.38,11-1.16,8.09-20.21,8.28-30.42-2.69-12.32-1.15-16.75,1.16-14.54,1.16-14.54-7.61,2.89-13.39,0a88,88,0,0,1-11.55-7.22s3.75,3.47-.29,5.2-15.59.58-15.59.58-4.19,11.7-4.48,16.46-1.16,7.51-1.73,6.79S283.41,399.15,283.41,399.15Z"/><path class="cls-18" d="M313.25,448.64s-23.44-4.09-26.33-7.27-6.64-13.72-6.64-13.72.43,13.43,9.82,23.11,23.1,17.32,21.51,14.29S313.25,448.64,313.25,448.64Z"/><path class="cls-17" d="M304.74,404c0,2.32-1,4.2-2.31,4.2s-2.31-1.88-2.31-4.2,1-4.21,2.31-4.21S304.74,401.64,304.74,404Z"/><ellipse class="cls-17" cx="323.66" cy="405.03" rx="2.31" ry="4.2"/><path class="cls-18" d="M314.5,422a.56.56,0,0,1-.44-.22.55.55,0,0,1,.12-.77c1.21-.9,3.21-2.7,3.39-3.7.12-.62-1.57-2-2.68-3a13.4,13.4,0,0,1-2.73-2.7c-1.33-2.15,2.19-6.46,2.6-6.94a.53.53,0,0,1,.77-.07.54.54,0,0,1,.06.77c-1.43,1.71-3.15,4.6-2.5,5.67a13.55,13.55,0,0,0,2.5,2.44c1.76,1.48,3.29,2.76,3.06,4-.32,1.75-3.47,4.12-3.82,4.38A.59.59,0,0,1,314.5,422Z"/><path class="cls-18" d="M321.72,429.87a8.38,8.38,0,0,1-2.35,2.82,10.06,10.06,0,0,1-7,1.8,14.47,14.47,0,0,1-4.82-1.06,8.11,8.11,0,0,1-4.92-5.06c.07-.31.49-.54,1.16-.7,3.38-.82,13.19.13,17,.54h0A1.15,1.15,0,0,1,321.72,429.87Z"/><path class="cls-2" d="M320.79,428.21a1.73,1.73,0,0,1-1.67,1.27H305.55a1.73,1.73,0,0,1-1.73-1.73v-.08C307.2,426.85,317,427.8,320.79,428.21Z"/><g class="cls-19"><path class="cls-16" d="M319.37,432.69a10.06,10.06,0,0,1-7,1.8,14.47,14.47,0,0,1-4.82-1.06,13,13,0,0,1,6.63-1.74A13.33,13.33,0,0,1,319.37,432.69Z"/></g><path class="cls-11" d="M400.07,688.93s-1.14-32.73-6.15-39.67S354.65,630,354.65,630s28.07,8.47,45.42,4.24,33.13-15,33.13-15-41.2,19.64-35.43,28.49S400.07,688.93,400.07,688.93Z"/><path class="cls-15" d="M148.63,773.11l-2.55,21L131.16,916.74a2.3,2.3,0,0,1-2.29,2H119a2.32,2.32,0,0,1-2.32-2.36l2.59-122.33.45-21Z"/><path class="cls-15" d="M308.8,916.41a2.32,2.32,0,0,1-2.32,2.36h-9.84a2.31,2.31,0,0,1-2.29-2L279.43,794.08l-2.55-21h28.89l.44,21Z"/><path class="cls-8" d="M502.24,916.41a2.32,2.32,0,0,1-2.31,2.36h-9.85a2.3,2.3,0,0,1-2.29-2L472.87,794.08l-2.55-21H499.2l.45,21Z"/><path class="cls-20" d="M447.45,546.06c-7.7,6.93-62,28.12-71.62,28.88a7.64,7.64,0,0,1-5-1.91c-8.57-6.44-18.13-26.92-18.82-28.42l0-.09s8.86,59.3,7.32,61.23-10.4,2.44-10.4,2.44H222.18c-15.41-6.8-4.62-106.79-2.77-114.5s11.24-15.79,18.94-20.41,35-10.78,35-10.78,25.42,14.25,35.1,11.66,8-8.58,8-8.58,25,2.69,34.94,12.25,26.68,50.9,30.52,54.37,6.17-.77,18.88-3.47,51.59-16.17,53.9-15.59,6.55,9.82,8.48,16S455.15,539.13,447.45,546.06Z"/><path class="cls-16" d="M321.72,589.67s14.61,1.06,17,11.07,2.75,14.18,2.75,14.18-4.81-5.63-9.89-6.73-13.32,0-13.32,0S319.59,589.38,321.72,589.67Z"/><g class="cls-21"><path class="cls-22" d="M254.52,532.2s-4.23,49.68,1.93,50.83,59.37-.77,61.84,0,3.43,6.64,3.43,6.64l9,2.39s-6.55-9-10.78-12.5-50.45,1.16-55.84-3.85S254.52,532.2,254.52,532.2Z"/></g><g class="cls-21"><path class="cls-22" d="M370.81,573c-8.57-6.44-18.13-26.92-18.82-28.42l0-.09L345.79,506Z"/></g><path class="cls-17" d="M298.5,396.46c.46-1.44,4-4.45,5.53-3.17.8.68,2-.48,1.16-1.16-1.54-1.29-3.24-.65-4.82.24a6.75,6.75,0,0,0-3.46,3.65c-.32,1,1.26,1.44,1.59.44Z"/><path class="cls-17" d="M322.58,395.25a3,3,0,0,1,3.77.76c.67.81,1.83-.35,1.16-1.16a4.62,4.62,0,0,0-5.76-1,.82.82,0,0,0,.83,1.42Z"/><polygon class="cls-8" points="119.75 773.11 148.63 773.11 146.08 794.08 119.3 794.08 119.75 773.11"/><polygon class="cls-8" points="305.77 773.11 306.21 794.08 279.43 794.08 276.88 773.11 305.77 773.11"/><polygon class="cls-23" points="499.65 794.08 472.87 794.08 470.32 773.11 499.2 773.11 499.65 794.08"/><path class="cls-2" d="M233.54,746.07s-4.33-5-3.48-6.8.76-2.89,2.29-1.78,1.11-.85,1.87-1.87,2.12-.76,3.4-2,2.12-3.65,3.65-2.21,1.27,2.29,2.89,2.38,1.53-1.28,2.8.68,1.6,1.86,3.82,3.65,2.63,3,1.87,4.58a32.08,32.08,0,0,0-1.87,3.91A4.34,4.34,0,0,1,247,749.8c-2.46.43-2.46.68-4.84.68a29,29,0,0,1-3.74-.33C235.92,750,235,746.41,233.54,746.07Z"/><path class="cls-24" d="M240.8,743.42s-.61,0-1.43-2-.82-1.44.61-2.56.42-2.35,2.46-2.35,1.84,2.84,3.48,3.11,1.53-2,1.63.26-.31,3.58-1.43,4.7,1.43,3.17-1.94,1-4-2.05-4-2.05"/><path class="cls-10" d="M264.33,787l-1.57,12.86-14,114.83a4.62,4.62,0,0,1-4.59,4.06H177.36a4.61,4.61,0,0,1-4.58-4.06L157.21,787c1.79-8.95,5.84-14.9,11-18.77a30.85,30.85,0,0,1,11.3-5.25c11.89-3,24.83-.29,29.49.9,1.16.3,1.81.5,1.81.5a68.68,68.68,0,0,1,10.13-2.11c8.65-1.19,21.2-1.38,30.76,4.76a26.21,26.21,0,0,1,6.91,6.43A32.8,32.8,0,0,1,264.33,787Z"/><path class="cls-9" d="M179.47,763l10.26,155.77h-5.31L168.17,768.24A31,31,0,0,1,179.47,763Z"/><path class="cls-9" d="M239.61,763,229.34,918.77h5.31L250.9,768.24A31,31,0,0,0,239.61,763Z"/><path class="cls-9" d="M210.77,764.4a68.68,68.68,0,0,1,10.13-2.11l-9.67,156.48H205v-156C206.19,763.11,210.77,764.4,210.77,764.4Z"/><path class="cls-25" d="M264.33,787l-1.57,12.86H204.92a12,12,0,0,0-12,12.65l5.38,106.24H177.36a4.61,4.61,0,0,1-4.58-4.06L157.21,787c1.79-8.95,5.84-14.9,11-18.77a30.85,30.85,0,0,1,11.3-5.25c11.89-3,24.83-.29,29.49.9,1.16.3,1.81.5,1.81.5a68.68,68.68,0,0,1,10.13-2.11c8.65-1.19,21.2-1.38,30.76,4.76a26.21,26.21,0,0,1,6.91,6.43A32.8,32.8,0,0,1,264.33,787Z"/><path class="cls-2" d="M170.19,757.66s-4.91-5.68-3.94-7.7.86-3.27,2.59-2,1.26-1,2.12-2.12,2.41-.86,3.85-2.21,2.41-4.14,4.14-2.5,1.45,2.6,3.28,2.69,1.73-1.44,3.17.77,1.82,2.12,4.33,4.14,3,3.37,2.12,5.2a35.37,35.37,0,0,0-2.12,4.43,4.93,4.93,0,0,1-4.33,3.56c-2.79.48-2.79.77-5.48.77s-1.45-.18-4.24-.38S171.83,758.05,170.19,757.66Z"/><path class="cls-24" d="M178.43,754.67s-.7,0-1.63-2.32-.93-1.62.7-2.9.46-2.66,2.78-2.66,2.09,3.22,3.94,3.52,1.74-2.25,1.85.3-.34,4.06-1.62,5.33,1.62,3.59-2.2,1.16-4.47-2.32-4.47-2.32"/><path class="cls-2" d="M177.1,745.65s-4.91-5.68-3.95-7.7.87-3.28,2.6-2,1.25-1,2.12-2.12,2.41-.87,3.85-2.22,2.4-4.14,4.14-2.5,1.44,2.6,3.27,2.7,1.73-1.45,3.18.77,1.82,2.11,4.33,4.14,3,3.37,2.12,5.19a34,34,0,0,0-2.12,4.43,5,5,0,0,1-4.33,3.57c-2.79.48-2.79.77-5.49.77s-1.44-.19-4.23-.39S178.73,746,177.1,745.65Z"/><path class="cls-24" d="M185.33,742.65s-.69,0-1.62-2.32-.93-1.62.69-2.89.47-2.67,2.79-2.67,2.08,3.22,3.94,3.52,1.73-2.24,1.85.3-.35,4.06-1.62,5.33,1.62,3.6-2.2,1.16-4.48-2.31-4.48-2.31"/><path class="cls-2" d="M184,752.81s-4.91-5.68-3.94-7.7.86-3.27,2.6-2,1.25-1,2.11-2.12,2.41-.87,3.85-2.21,2.41-4.14,4.14-2.51,1.45,2.6,3.28,2.7,1.73-1.44,3.17.77,1.82,2.12,4.33,4.14,3,3.37,2.12,5.2a36.83,36.83,0,0,0-2.12,4.43,4.9,4.9,0,0,1-4.33,3.56c-2.79.48-2.79.77-5.48.77s-1.45-.19-4.24-.38S185.64,753.2,184,752.81Z"/><path class="cls-24" d="M192.24,749.81s-.7,0-1.62-2.31-.94-1.63.69-2.9.46-2.67,2.78-2.67,2.09,3.23,3.94,3.53,1.74-2.25,1.86.3-.35,4-1.63,5.33,1.63,3.59-2.2,1.16-4.47-2.32-4.47-2.32"/><path class="cls-2" d="M198.29,747s-5.15-6-4.14-8.08.91-3.44,2.73-2.13,1.31-1,2.22-2.22,2.53-.91,4-2.33,2.53-4.34,4.35-2.62,1.52,2.73,3.44,2.83,1.82-1.52,3.33.8,1.91,2.23,4.55,4.35S222,741.1,221,743a36.83,36.83,0,0,0-2.23,4.65,5.18,5.18,0,0,1-4.55,3.74c-2.93.5-2.93.81-5.76.81s-1.51-.2-4.45-.4S200,747.37,198.29,747Z"/><path class="cls-24" d="M206.94,743.81s-.73,0-1.71-2.43-1-1.7.73-3,.49-2.8,2.92-2.8,2.19,3.38,4.14,3.7,1.83-2.36,1.95.31-.37,4.26-1.71,5.6,1.71,3.77-2.31,1.22-4.69-2.44-4.69-2.44"/><path class="cls-2" d="M223.68,760.72s-5.15-6-4.14-8.09.91-3.43,2.73-2.12,1.31-1,2.22-2.22,2.53-.91,4-2.33,2.52-4.35,4.34-2.63,1.52,2.73,3.44,2.83,1.82-1.51,3.33.81,1.91,2.23,4.55,4.35,3.14,3.54,2.23,5.46a36.83,36.83,0,0,0-2.23,4.65,5.18,5.18,0,0,1-4.55,3.74c-2.93.5-2.93.8-5.76.8s-1.51-.19-4.45-.4S225.4,761.12,223.68,760.72Z"/><path class="cls-24" d="M232.33,757.57s-.73,0-1.7-2.43-1-1.71.72-3,.49-2.79,2.93-2.79,2.19,3.38,4.13,3.7,1.83-2.37,2,.31-.37,4.26-1.7,5.6,1.7,3.77-2.32,1.21-4.69-2.43-4.69-2.43"/><path class="cls-2" d="M220.09,746.7s-3.17-3.67-2.55-5,.56-2.11,1.68-1.3.81-.63,1.37-1.37,1.56-.56,2.49-1.43,1.56-2.68,2.68-1.62.93,1.68,2.12,1.74,1.12-.93,2.05.5,1.17,1.37,2.8,2.68,1.93,2.17,1.37,3.36a21.33,21.33,0,0,0-1.37,2.86,3.18,3.18,0,0,1-2.8,2.3,14.46,14.46,0,0,1-3.55.5,20.51,20.51,0,0,1-2.74-.25C221.84,749.57,221.15,747,220.09,746.7Z"/><path class="cls-24" d="M225.42,744.77s-.45,0-1-1.5-.6-1,.45-1.88.3-1.72,1.8-1.72,1.35,2.08,2.54,2.28,1.13-1.46,1.2.19a4.06,4.06,0,0,1-1.05,3.45c-.82.82,1.05,2.32-1.42.75s-2.89-1.5-2.89-1.5"/><path class="cls-2" d="M241,755.53s-3.18-3.67-2.55-5,.56-2.12,1.68-1.31.81-.62,1.37-1.37,1.55-.56,2.49-1.43,1.55-2.68,2.67-1.62.94,1.68,2.12,1.74,1.12-.93,2.05.5,1.18,1.37,2.8,2.68,1.93,2.17,1.37,3.36a22.63,22.63,0,0,0-1.37,2.86,3.17,3.17,0,0,1-2.8,2.3,14.32,14.32,0,0,1-3.54.5,20.22,20.22,0,0,1-2.74-.25C242.77,758.4,242.09,755.78,241,755.53Z"/><path class="cls-24" d="M246.35,753.6s-.45,0-1-1.5-.6-1.05.45-1.88.3-1.72,1.8-1.72,1.35,2.08,2.55,2.28,1.12-1.45,1.2.19a4.13,4.13,0,0,1-1.05,3.45c-.83.82,1.05,2.32-1.42.75s-2.9-1.5-2.9-1.5"/><path class="cls-2" d="M201.65,758.24s-6.17-7.15-5-9.69,1.09-4.12,3.27-2.55,1.57-1.21,2.66-2.66,3-1.09,4.85-2.78,3-5.21,5.2-3.15,1.82,3.27,4.12,3.39,2.18-1.82,4,1,2.28,2.66,5.44,5.2,3.76,4.24,2.67,6.54-2.07,3.64-2.67,5.57-1.93,3.88-5.44,4.48-3.51,1-6.9,1-1.82-.23-5.33-.48S203.71,758.72,201.65,758.24Z"/><path class="cls-24" d="M212,754.46s-.87,0-2-2.91-1.17-2,.87-3.65.59-3.35,3.5-3.35,2.63,4.05,5,4.43,2.19-2.83,2.33.38-.44,5.1-2,6.71,2,4.51-2.77,1.45-5.62-2.91-5.62-2.91"/><path class="cls-26" d="M272.91,758.18v19.45c0,5.45-5.56,9.88-12.43,9.88s-12.42-4.43-12.42-9.88c0,5.45-5.57,9.88-12.43,9.88s-12.43-4.43-12.43-9.88c0,5.45-5.57,9.88-12.43,9.88s-12.43-4.43-12.43-9.88c0,5.45-5.56,9.88-12.43,9.88s-12.42-4.43-12.42-9.88c0,5.45-5.57,9.88-12.43,9.88s-12.43-4.43-12.43-9.88V758.18c0-2.1,2.07-3.79,4.62-3.79h115C270.84,754.39,272.91,756.08,272.91,758.18Z"/><rect class="cls-15" x="589.74" y="723.58" width="401.19" height="176.88" rx="4.62"/><rect class="cls-3" x="589.74" y="723.58" width="82.36" height="176.88" rx="4.62"/><path class="cls-8" d="M599.94,900.47,602,916.75a2.3,2.3,0,0,0,2.29,2h4.44a2.3,2.3,0,0,0,2.28-2l2.41-16.33Z"/><path class="cls-8" d="M645.92,900.47,648,916.75a2.31,2.31,0,0,0,2.29,2h4.44a2.31,2.31,0,0,0,2.29-2l2.4-16.33Z"/><path class="cls-8" d="M916.33,900.47l2,16.28a2.31,2.31,0,0,0,2.29,2h4.44a2.31,2.31,0,0,0,2.29-2l2.4-16.33Z"/><path class="cls-8" d="M962.31,900.47l2.06,16.28a2.29,2.29,0,0,0,2.29,2h4.44a2.3,2.3,0,0,0,2.28-2l2.41-16.33Z"/><path class="cls-1" d="M672.09,728.2v51.88C660.89,798,647,812,630.92,812c-18.47,0-31.84-15.49-41.18-33.72V728.2a4.62,4.62,0,0,1,4.62-4.62h73.11A4.62,4.62,0,0,1,672.09,728.2Z"/><path class="cls-3" d="M990.93,728.2v51.88s-20.54,44.4-152.24,44.4-166.6-44.4-166.6-44.4V728.2a4.62,4.62,0,0,0-4.62-4.62H986.31A4.63,4.63,0,0,1,990.93,728.2Z"/><path class="cls-1" d="M990.93,766.27v6.38a118.69,118.69,0,0,1-24.85,16.72c-23.14,12-65.67,26.25-136.88,26.25-31.41,0-59.29-2.75-82.84-8.18-18.94-4.37-35.17-10.46-48.24-18.13-15.29-9-22.69-18-26-23a1,1,0,0,1-.08.14V755.89l.21-.43,2,5c0,.11,5.24,12.69,26.74,25.14C721,797.2,759.42,811,829.2,811c70.28,0,112.07-14,134.75-25.74C977.67,778.17,986.14,771.1,990.93,766.27Z"/><path class="cls-2" d="M672.09,755.89v10.52c-5.58,10.42-21.7,36.88-41.17,36.88s-35.58-26.43-41.18-36.87v-11c.18.38,20.35,43.21,41.18,43.21s38.9-37.95,39.08-38.33Z"/><circle class="cls-26" cx="269.16" cy="252.41" r="18.68" transform="translate(-99.65 264.25) rotate(-45)"/><rect class="cls-26" x="245.48" y="148.3" width="47.36" height="10.4" rx="4"/><rect class="cls-9" x="265.98" y="158.69" width="5.2" height="50.54"/><path class="cls-10" d="M352.34,249.67s-42.92,11.44-83.18,11.55h-.58c-39.64-.11-81.83-11.2-83.15-11.54,2.06.48,9.83-5.25,11.57-6.17l7.23-3.84,3.91-2.08,15.06-8,32.29-17.15c3.39-1.8,6.74-3.86,10.23-5.43,6.53-2.94,13,3.32,18.55,6.32,6.08,3.28,12.12,6.62,18.22,9.86l27.21,14.45,3.9,2.07Z"/><path class="cls-9" d="M333.6,239.72c-14.24,3.83-35,7.07-64.44,7.07-29.6,0-50.54-3.27-64.93-7.12l3.91-2.08c14.05,3.47,33.86,6.32,61,6.32s46.65-2.82,60.54-6.26Z"/><rect class="cls-3" x="141.21" y="305.38" width="69.21" height="12.14" rx="3"/><rect class="cls-1" x="179.76" y="317.13" width="49.9" height="12.14" rx="3"/><rect class="cls-3" x="370.98" y="355.46" width="49.9" height="12.14" rx="3"/><rect class="cls-1" x="375.84" y="250.68" width="34.87" height="7.63" rx="3"/><rect class="cls-3" x="396.18" y="258.54" width="34.87" height="7.63" rx="3"/><rect class="cls-1" x="398.33" y="458.09" width="34.87" height="7.63" rx="3"/><rect class="cls-3" x="380.9" y="465.72" width="34.87" height="7.63" rx="3"/></g></svg>