<?xml version="1.0" standalone="no"?><!DOCTYPE svg PUBLIC "-//W3C//DTD SVG 1.1//EN" "http://www.w3.org/Graphics/SVG/1.1/DTD/svg11.dtd"><svg t="1650191902320" class="icon" viewBox="0 0 1024 1024" version="1.1" xmlns="http://www.w3.org/2000/svg" p-id="3208" xmlns:xlink="http://www.w3.org/1999/xlink" width="200" height="200"><defs><style type="text/css">@font-face { font-family: feedback-iconfont; src: url("//at.alicdn.com/t/font_1031158_u69w8yhxdu.woff2?t=1630033759944") format("woff2"), url("//at.alicdn.com/t/font_1031158_u69w8yhxdu.woff?t=1630033759944") format("woff"), url("//at.alicdn.com/t/font_1031158_u69w8yhxdu.ttf?t=1630033759944") format("truetype"); }
</style></defs><path d="M993.28 624.64q2.048 18.432-4.096 55.296t-25.088 81.408-52.736 91.136-88.064 84.48-130.56 62.464-180.736 24.576q-103.424 0-180.224-24.576t-131.072-62.464-88.064-84.48-52.736-91.136-25.088-81.408-4.096-55.296q2.048-22.528 12.8-47.104t32.768-42.496 56.832-22.528 83.968 12.8q41.984 15.36 69.632 30.72t56.832 28.16 67.072 20.992 101.376 8.192q62.464 0 100.864-8.192t67.584-20.992 56.832-28.16 69.632-30.72q50.176-17.408 84.48-12.8t56.32 22.528 32.768 42.496 12.8 47.104zM510.976 851.968q53.248 0 98.304-9.216t81.92-24.064 66.048-34.304 51.712-39.936q52.224-48.128 82.944-108.544-34.816 36.864-89.088 65.536-46.08 24.576-117.76 45.056t-173.056 20.48q-102.4 0-174.08-20.48t-117.76-45.056q-54.272-28.672-90.112-65.536 30.72 60.416 82.944 108.544 22.528 20.48 51.712 39.936t66.048 34.304 81.408 24.064 98.816 9.216zM265.216 456.704q-5.12-40.96-14.336-74.752-8.192-29.696-20.48-57.856t-30.72-41.472q-19.456-11.264-48.128-21.504t-55.296-18.432q-31.744-9.216-65.536-15.36 33.792-6.144 65.536-14.336 26.624-7.168 55.296-17.408t48.128-22.528q18.432-11.264 30.72-39.936t20.48-58.368q9.216-33.792 14.336-74.752 4.096 40.96 13.312 74.752 8.192 29.696 20.48 58.368t30.72 39.936q19.456 12.288 48.128 22.528t55.296 17.408q31.744 8.192 65.536 14.336-33.792 6.144-65.536 15.36-26.624 8.192-55.296 18.432t-48.128 21.504q-18.432 13.312-30.72 41.472t-20.48 57.856q-9.216 33.792-13.312 74.752zM759.808 456.704q-5.12-40.96-14.336-74.752-8.192-29.696-20.48-57.856t-30.72-41.472q-19.456-11.264-48.128-21.504t-55.296-18.432q-31.744-9.216-65.536-15.36 33.792-6.144 65.536-14.336 26.624-7.168 55.296-17.408t48.128-22.528q18.432-11.264 30.72-39.936t20.48-58.368q9.216-33.792 14.336-74.752 4.096 40.96 13.312 74.752 8.192 29.696 20.48 58.368t31.744 39.936q18.432 12.288 47.104 22.528t55.296 17.408q31.744 8.192 65.536 14.336-33.792 6.144-65.536 15.36-26.624 8.192-55.296 18.432t-47.104 21.504q-19.456 13.312-31.744 41.472t-20.48 57.856q-9.216 33.792-13.312 74.752zM392.192 451.584q0-24.576 9.728-46.592t25.6-38.4 37.888-25.6 46.592-9.216 46.592 9.216 38.4 25.6 26.112 38.4 9.728 46.592q0 25.6-9.728 47.616t-26.112 38.4-38.4 25.6-46.592 9.216-46.592-9.216-37.888-25.6-25.6-38.4-9.728-47.616zM560.128 373.76q-13.312 0-23.04 9.216t-9.728 22.528q0 14.336 9.728 23.552t23.04 9.216q14.336 0 23.04-9.216t8.704-23.552q0-13.312-8.704-22.528t-23.04-9.216z" p-id="3209"></path></svg>