<?xml version="1.0" standalone="no"?><!DOCTYPE svg PUBLIC "-//W3C//DTD SVG 1.1//EN" "http://www.w3.org/Graphics/SVG/1.1/DTD/svg11.dtd"><svg t="1651314367267" class="icon" viewBox="0 0 1024 1024" version="1.1" xmlns="http://www.w3.org/2000/svg" p-id="9721" xmlns:xlink="http://www.w3.org/1999/xlink" width="200" height="200"><defs><style type="text/css">@font-face { font-family: feedback-iconfont; src: url("//at.alicdn.com/t/font_1031158_u69w8yhxdu.woff2?t=1630033759944") format("woff2"), url("//at.alicdn.com/t/font_1031158_u69w8yhxdu.woff?t=1630033759944") format("woff"), url("//at.alicdn.com/t/font_1031158_u69w8yhxdu.ttf?t=1630033759944") format("truetype"); }
</style></defs><path d="M92.864 160c0 25.152 10.368 50.112 28.096 67.904 17.728 17.728 42.752 28.096 67.904 28.096s50.048-10.368 67.84-28.16c17.792-17.728 28.16-42.752 28.16-67.84s-10.368-50.176-28.16-67.904C238.912 74.304 213.952 64 188.864 64s-50.176 10.304-67.904 28.096A96.96 96.96 0 0 0 92.864 160z m0 0M304 288h-224a32 32 0 0 0-32 32v255.936a32 32 0 0 0 32 32h32V896a32 32 0 0 0 32 32h96a32 32 0 0 0 32-32V607.872h32a32 32 0 0 0 32-32V320a32 32 0 0 0-32-32z m0 0M412.864 160c0 25.152 10.368 50.112 28.096 67.904 17.792 17.728 42.752 28.096 67.904 28.096a97.28 97.28 0 0 0 67.904-28.16c17.728-17.728 28.096-42.752 28.096-67.84s-10.368-50.176-28.096-67.904A97.216 97.216 0 0 0 508.864 64c-25.152 0-50.112 10.304-67.904 28.096A96.96 96.96 0 0 0 412.864 160z m0 0M732.864 160c0 25.152 10.304 50.112 28.032 67.904 17.856 17.728 42.816 28.096 67.904 28.096 25.216 0 50.112-10.368 67.968-28.096 17.728-17.792 28.032-42.816 28.032-67.904s-10.304-50.112-28.032-67.904A97.28 97.28 0 0 0 828.8 64c-25.152 0-50.048 10.368-67.904 28.096a97.216 97.216 0 0 0-28.032 67.904z m0 0M1008 688c0-46.4-11.584-89.856-32-128.128V320a32 32 0 0 0-32-32h-224a32 32 0 0 0-32 32v100.288c-10.88 1.92-21.568 3.712-32 7.68V320a32 32 0 0 0-32-32h-224a32 32 0 0 0-32 32v255.936a32 32 0 0 0 32 32h32V896a32 32 0 0 0 32 32h96a31.872 31.872 0 0 0 25.856-13.248 271.36 271.36 0 0 0 278.208 13.248h15.936a32 32 0 0 0 32-32v-0.768a271.104 271.104 0 0 0 96-207.232z m-40.768-143.232c-0.96-1.472-1.856-3.008-2.88-4.48 1.024 1.472 1.984 2.944 2.88 4.48z m5.76 9.6l-2.496-4.224 2.496 4.224z m-14.208-22.336l-2.944-4.096 2.944 4.096z m-6.592-9.088l-3.328-4.16 3.328 4.16z m-9.408-11.584l-3.712-4.288 3.712 4.288z m-7.68-8.64l-3.904-4.096 3.904 4.096z m-186.624-86.464z m177.856 77.44l-5.952-5.632 5.952 5.632z m-9.984-9.28l-4.672-4.032 4.672 4.032z m-8.576-7.36l-7.872-6.208c2.688 2.048 5.312 4.096 7.872 6.208z m-11.648-8.96a439.04 439.04 0 0 0-5.696-4.032l5.696 4.032z m-9.536-6.656c-2.944-1.92-5.824-3.84-8.832-5.632 3.008 1.792 5.888 3.712 8.832 5.632z m-11.968-7.488l-6.912-3.968c2.304 1.28 4.608 2.56 6.912 3.968z m-10.752-6.08l-8.384-4.288 8.384 4.288z m-11.2-5.632z m-12.736-5.696z m-11.008-4.288z m-14.08-4.608l-8.896-2.56c3.008 0.768 6.016 1.6 8.896 2.56z m-11.712-3.328z m-14.208-3.136z m-12.736-2.24z m-13.824-1.664c-3.52-0.32-6.976-0.64-10.56-0.832 3.584 0.192 7.04 0.512 10.56 0.832z m-61.824 1.088l-1.152 0.128 1.152-0.128z m14.528-1.536a85.504 85.504 0 0 0-4.032 0.32l4.032-0.32z m-64.448 12.864l-6.144 2.112 6.144-2.112z m-23.04 8.832l-5.632 2.56 5.632-2.56z m11.2-4.608l-5.696 2.24 5.696-2.24z m-88.512 55.424l-5.056 4.8 5.056-4.8z m66.368-45.76l-6.272 3.136 6.272-3.136z m-14.016 7.36l-6.336 3.648 6.336-3.648z m-11.2 6.592z m-10.048 6.72z m-9.664 6.976z m-9.344 7.424c-2.88 2.368-5.696 4.864-8.512 7.296l8.512-7.296z m-98.048 196.48z m77.056-177.152l-4.544 4.864 4.544-4.864z m-8.192 8.832z m-7.808 9.088z m-9.024 11.648z m-7.616 11.072z m-6.592 10.368c-1.28 2.24-2.56 4.352-3.776 6.656l3.776-6.656z m-5.952 10.624z m-5.504 10.752z m-6.4 14.528z m-4.608 11.968z m-3.904 11.904c-0.896 2.88-1.664 5.76-2.432 8.576 0.768-2.816 1.536-5.696 2.432-8.576z m-3.328 11.84z m-3.328 14.784z m-2.368 13.888l-1.088 8.384 1.088-8.384z m-1.472 12.992l-0.64 8.768c0.128-2.944 0.384-5.888 0.64-8.768z m71.424 210.624l5.248 5.632-5.248-5.632z m-72.256-169.792z m1.152 14.016z m1.664 12.992z m2.688 14.272z m2.752 11.84z m4.032 14.144z m4.48 12.864c1.088 2.88 2.176 5.76 3.392 8.512a168.32 168.32 0 0 1-3.392-8.512z m4.736 11.776z m6.016 12.992z m5.376 10.496z m7.36 12.48z m7.68 11.776c1.344 1.856 2.624 3.776 4.032 5.504a86.784 86.784 0 0 1-4.032-5.504z m7.04 9.6z m9.152 11.392c1.216 1.344 2.368 2.88 3.648 4.224a74.88 74.88 0 0 1-3.648-4.224z m28.416 28.864l3.456 3.008-3.456-3.008z m-10.816-9.984l3.52 3.392-3.52-3.392z m30.976 25.984l3.456 2.496c-1.216-0.832-2.368-1.6-3.456-2.496z m-11.776-8.96c1.152 1.024 2.304 1.856 3.456 2.752a129.92 129.92 0 0 1-3.456-2.752zM496 688A240.32 240.32 0 0 1 736 448a240.256 240.256 0 0 1 240 240 240.32 240.32 0 0 1-240 240 240.384 240.384 0 0 1-240-240z m0 0" p-id="9722"></path><path d="M824 656h-8v-48.128A47.936 47.936 0 0 0 768 560h-64a47.936 47.936 0 0 0-48 47.872v48.128h-8a23.936 23.936 0 0 0-24 24v111.872c0 13.376 10.752 24.128 24 24.128h176a24.064 24.064 0 0 0 24-24.128v-111.872a23.936 23.936 0 0 0-24-24z m-72 111.872h-32v-64h32v64z m32-111.872h-96v-48.128c0-8.768 7.168-15.872 16-15.872h64c8.832 0 16 7.104 16 15.872v48.128z m0 0" p-id="9723"></path></svg>