<?xml version="1.0" standalone="no"?><!DOCTYPE svg PUBLIC "-//W3C//DTD SVG 1.1//EN" "http://www.w3.org/Graphics/SVG/1.1/DTD/svg11.dtd"><svg t="1651313889392" class="icon" viewBox="0 0 1024 1024" version="1.1" xmlns="http://www.w3.org/2000/svg" p-id="4289" xmlns:xlink="http://www.w3.org/1999/xlink" width="200" height="200"><defs><style type="text/css">@font-face { font-family: feedback-iconfont; src: url("//at.alicdn.com/t/font_1031158_u69w8yhxdu.woff2?t=1630033759944") format("woff2"), url("//at.alicdn.com/t/font_1031158_u69w8yhxdu.woff?t=1630033759944") format("woff"), url("//at.alicdn.com/t/font_1031158_u69w8yhxdu.ttf?t=1630033759944") format("truetype"); }
</style></defs><path d="M859.2 116.6l-77.8-44.9c-17.3-10-38.7-10-56 0l-77.8 44.9c-5.1 2.9-9.6 6.6-13.4 10.8-3.8-4.2-8.3-7.9-13.4-10.8L543 71.7c-17.3-10-38.7-10-56 0l-77.8 44.9c-5.1 2.9-9.6 6.6-13.4 10.8-3.8-4.2-8.3-7.9-13.4-10.8l-77.8-44.9c-17.3-10-38.7-10-56 0l-77.8 44.9c-13.7 7.9-23.3 21.2-26.6 36.3-0.9 2.8-1.4 5.7-1.4 8.8v768.9c0 16 13.1 29.2 29.2 29.2h686c16 0 29.2-13.1 29.2-29.2V165.1c0-20-10.7-38.5-28-48.5zM652.8 584.5c24.3 0 44.1 19.7 44.1 44.1 0 24.3-19.7 44.1-44.1 44.1h-93.7v110.2c0 24.3-19.7 44.1-44.1 44.1-24.3 0-44.1-19.7-44.1-44.1V672.7h-93.7c-24.3 0-44.1-19.7-44.1-44.1 0-24.3 19.7-44.1 44.1-44.1H471v-62.2h-93.7c-24.3 0-44.1-19.7-44.1-44.1 0-24.3 19.7-44.1 44.1-44.1h82.8L352.3 326.3c-0.1-0.1-0.2-0.3-0.2-0.4-5.4-59 49.5-74.9 76.6-47.8l86.3 86.3 100.4-100.4c0.1-0.1 0.3-0.2 0.4-0.2 59-5.4 74.9 49.5 47.8 76.6L570 434.1h82.8c24.3 0 44.1 19.7 44.1 44.1 0 24.3-19.7 44.1-44.1 44.1h-93.7v62.2h93.7z" p-id="4290"></path></svg>